SplineFontDB: 3.2
FontName: Salieri-Regular
FullName: Salieri
FamilyName: Salieri
Weight: Regular
Copyright: Copyright (c) 2020, Daniel Benjamin Miller.
Version: 000
ItalicAngle: 0
UnderlinePosition: -100
UnderlineWidth: 50
Ascent: 765
Descent: 235
InvalidEm: 0
LayerCount: 2
Layer: 0 0 "Back" 1
Layer: 1 0 "Fore" 0
XUID: [1021 572 -1837316912 15596597]
StyleMap: 0x0040
FSType: 0
OS2Version: 0
OS2_WeightWidthSlopeOnly: 0
OS2_UseTypoMetrics: 1
CreationTime: 1587885725
ModificationTime: 1588958696
PfmFamily: 17
TTFWeight: 400
TTFWidth: 5
LineGap: 90
VLineGap: 0
OS2TypoAscent: 0
OS2TypoAOffset: 1
OS2TypoDescent: 0
OS2TypoDOffset: 1
OS2TypoLinegap: 90
OS2WinAscent: 0
OS2WinAOffset: 1
OS2WinDescent: 0
OS2WinDOffset: 1
HheadAscent: 0
HheadAOffset: 1
HheadDescent: 0
HheadDOffset: 1
OS2FamilyClass: 258
OS2Vendor: 'PfEd'
Lookup: 4 0 1 "'liga' Standard Ligatures in Latin lookup 0" { "'liga' Standard Ligatures in Latin lookup 0-1"  } ['liga' ('DFLT' <'dflt' > 'latn' <'dflt' > ) ]
Lookup: 258 0 0 "'kern' Horizontal Kerning in Latin lookup 1" { "'kern' Horizontal Kerning in Latin lookup 1-1" [150,0,4] } ['kern' ('DFLT' <'dflt' > 'latn' <'dflt' > ) ]
MarkAttachClasses: 1
DEI: 91125
KernClass2: 47 29 "'kern' Horizontal Kerning in Latin lookup 1-1"
 1 A
 1 B
 1 C
 5 D O Q
 1 E
 1 F
 1 G
 3 H I
 1 J
 1 K
 1 L
 1 M
 1 N
 1 P
 1 R
 1 S
 1 T
 3 V W
 1 X
 1 Y
 1 Z
 11 bracketleft
 9 backslash
 12 bracketright
 1 a
 1 b
 1 c
 1 d
 1 e
 1 f
 1 g
 1 h
 3 i l
 1 j
 1 k
 3 m n
 3 o p
 1 q
 1 r
 1 s
 1 t
 1 u
 5 v w y
 1 x
 1 z
 1 U
 1 A
 23 B D E F H I J K L N P R
 7 C G O Q
 1 M
 1 S
 1 T
 1 U
 3 V W
 1 X
 1 Y
 1 Z
 11 bracketleft
 9 backslash
 12 bracketright
 1 a
 1 b
 9 c d e o q
 1 f
 1 g
 5 h k l
 3 i j
 5 m n r
 1 p
 1 s
 3 t u
 5 v w y
 1 x
 1 z

StartChar: A
Encoding: 65 65 0
Width: 705
Flags: HMW
LayerCount: 2
Fore
SplineSet
224 303 m 1
 427 303 l 1
 322 597 l 1
 224 303 l 1
10 0 m 1
 10 26 l 1
 81 26 96 61 131 160 c 2
 273 558 l 2
 291 609 295 643 295 682 c 1
 319 695 337 707 353 726 c 1
 370 726 l 1
 604 86 l 2
 614 59 630 26 695 26 c 1
 695 0 l 1
 434 0 l 1
 434 26 l 1
 464 26 504 26 504 60 c 0
 504 82 442 262 442 262 c 1
 210 262 l 1
 187 191 155 106 155 81 c 0
 155 39 174 26 247 26 c 1
 247 0 l 1
 10 0 l 1
EndSplineSet
EndChar

StartChar: B
Encoding: 66 66 1
Width: 620
Flags: HMW
LayerCount: 2
Fore
SplineSet
229 340 m 1
 229 120 l 2
 229 48 266 42 311 42 c 0
 426 42 477 103 477 193 c 0
 477 292 419 340 277 340 c 2
 229 340 l 1
267 665 m 2
 229 665 l 1
 229 385 l 1
 261 385 l 2
 381 385 417 457 417 539 c 0
 417 615 381 665 267 665 c 2
41 0 m 1
 41 25 l 1
 105 25 129 31 129 96 c 2
 129 607 l 2
 129 659 113 674 41 674 c 1
 41 700 l 1
 266 700 l 2
 414 700 517 658 517 544 c 0
 517 469 462 406 359 379 c 1
 482 373 577 311 577 198 c 0
 577 75 507 0 297 0 c 2
 41 0 l 1
EndSplineSet
EndChar

StartChar: C
Encoding: 67 67 2
Width: 709
Flags: HMW
LayerCount: 2
Fore
SplineSet
665 519 m 1
 645 519 l 1
 631 576 597 667 434 667 c 0
 269 667 157 529 157 358 c 0
 157 175 276 32 441 32 c 0
 590 32 634 136 646 192 c 1
 668 187 l 1
 646 42 l 1
 646 42 552 -11 419 -11 c 0
 194 -11 47 146 47 348 c 0
 47 545 199 710 428 710 c 0
 548 710 655 660 655 660 c 1
 665 519 l 1
EndSplineSet
EndChar

StartChar: D
Encoding: 68 68 3
Width: 775
Flags: HMW
LayerCount: 2
Fore
SplineSet
302 0 m 2
 41 0 l 1
 41 26 l 1
 105 26 129 32 129 97 c 2
 129 607 l 2
 129 659 113 674 41 674 c 1
 41 700 l 1
 295 700 l 1
 693 695 726 431 726 361 c 0
 726 147 572 0 302 0 c 2
339 42 m 0
 525 42 616 175 616 341 c 0
 616 517 522 665 281 665 c 2
 229 665 l 1
 229 157 l 2
 229 57 250 42 339 42 c 0
EndSplineSet
EndChar

StartChar: E
Encoding: 69 69 4
Width: 626
Flags: HMW
LayerCount: 2
Fore
SplineSet
557 0 m 1
 41 0 l 1
 41 26 l 1
 105 26 129 32 129 97 c 2
 129 607 l 2
 129 659 113 674 41 674 c 1
 41 700 l 1
 530 700 l 1
 530 545 l 1
 509 545 l 1
 504 617 477 665 347 665 c 2
 229 665 l 1
 229 385 l 1
 361 385 l 2
 415 385 444 402 444 469 c 1
 471 469 l 1
 472 242 l 1
 446 242 l 1
 446 318 428 340 337 340 c 2
 229 340 l 1
 229 134 l 2
 229 42 255 42 362 42 c 0
 485 42 536 58 575 166 c 1
 599 159 l 1
 557 0 l 1
EndSplineSet
EndChar

StartChar: F
Encoding: 70 70 5
Width: 550
Flags: HMW
LayerCount: 2
Fore
SplineSet
316 0 m 1
 41 0 l 1
 41 26 l 1
 105 26 129 32 129 97 c 2
 129 607 l 2
 129 659 113 674 41 674 c 1
 41 700 l 1
 530 700 l 1
 530 545 l 1
 509 545 l 1
 504 617 477 665 347 665 c 2
 229 665 l 1
 229 385 l 1
 361 385 l 2
 415 385 444 402 444 469 c 1
 471 469 l 1
 472 242 l 1
 446 242 l 1
 446 318 428 340 337 340 c 2
 229 340 l 1
 229 107 l 2
 229 38 245 26 316 26 c 1
 316 0 l 1
EndSplineSet
EndChar

StartChar: G
Encoding: 71 71 6
Width: 778
Flags: HMW
LayerCount: 2
Fore
SplineSet
669 658 m 1
 685 508 l 1
 662 507 l 1
 632 631 540 668 430 668 c 0
 269 668 157 539 157 358 c 0
 157 186 258 31 436 31 c 0
 488 31 556 44 571 59 c 1
 571 203 l 2
 571 257 568 271 485 275 c 1
 485 300 l 1
 754 300 l 1
 754 275 l 1
 669 275 667 239 667 185 c 2
 667 79 l 1
 683 62 l 1
 683 43 l 1
 613 18 522 -12 414 -12 c 0
 172 -12 47 146 47 348 c 0
 47 576 224 711 424 711 c 0
 526 711 619 675 669 658 c 1
EndSplineSet
EndChar

StartChar: H
Encoding: 72 72 7
Width: 850
Flags: HMW
LayerCount: 2
Fore
SplineSet
810 0 m 1
 534 0 l 1
 534 26 l 1
 598 26 622 32 622 97 c 2
 622 340 l 1
 229 340 l 1
 229 97 l 2
 229 32 253 26 317 26 c 1
 317 0 l 1
 41 0 l 1
 41 26 l 1
 105 26 129 32 129 97 c 2
 129 607 l 2
 129 659 113 674 41 674 c 1
 41 700 l 1
 317 700 l 1
 317 674 l 1
 245 674 229 659 229 607 c 2
 229 385 l 1
 622 385 l 1
 622 607 l 2
 622 659 606 674 534 674 c 1
 534 700 l 1
 810 700 l 1
 810 674 l 1
 738 674 722 659 722 607 c 2
 722 97 l 2
 722 32 746 26 810 26 c 1
 810 0 l 1
EndSplineSet
EndChar

StartChar: I
Encoding: 73 73 8
Width: 357
Flags: HMW
LayerCount: 2
Fore
SplineSet
229 607 m 2
 229 97 l 2
 229 32 253 26 317 26 c 1
 317 0 l 1
 41 0 l 1
 41 26 l 1
 105 26 129 32 129 97 c 2
 129 607 l 2
 129 659 113 674 41 674 c 1
 41 700 l 1
 317 700 l 1
 317 674 l 1
 245 674 229 659 229 607 c 2
EndSplineSet
EndChar

StartChar: J
Encoding: 74 74 9
Width: 357
Flags: HMW
LayerCount: 2
Fore
SplineSet
229 50 m 2
 229 -170 126 -235 24 -235 c 0
 -26 -235 -78 -213 -78 -163 c 0
 -78 -141 -62 -122 -40 -122 c 0
 14 -122 -14 -199 47 -199 c 0
 125 -199 129 -102 129 0 c 2
 129 607 l 2
 129 659 113 674 41 674 c 1
 41 700 l 1
 317 700 l 1
 317 674 l 1
 245 674 229 659 229 607 c 2
 229 50 l 2
EndSplineSet
EndChar

StartChar: K
Encoding: 75 75 10
Width: 699
Flags: HMW
LayerCount: 2
Fore
SplineSet
229 97 m 2
 229 32 253 26 317 26 c 1
 317 0 l 1
 41 0 l 1
 41 26 l 1
 105 26 129 32 129 97 c 2
 129 607 l 2
 129 659 113 674 41 674 c 1
 41 700 l 1
 317 700 l 1
 317 674 l 1
 245 674 229 659 229 607 c 2
 229 341 l 1
 476 613 l 2
 480 617 497 637 497 651 c 0
 497 671 466 674 438 674 c 1
 438 700 l 1
 662 700 l 1
 662 674 l 1
 584 674 525 610 507 591 c 2
 319 385 l 1
 566 116 l 2
 625 51 662 26 705 26 c 1
 705 0 l 1
 544 0 l 1
 229 340 l 1
 229 97 l 2
EndSplineSet
EndChar

StartChar: L
Encoding: 76 76 11
Width: 603
Flags: HMW
LayerCount: 2
Fore
SplineSet
41 0 m 1
 41 26 l 1
 105 26 129 32 129 97 c 2
 129 607 l 2
 129 659 113 674 41 674 c 1
 41 700 l 1
 317 700 l 1
 317 674 l 1
 245 674 229 659 229 607 c 2
 229 144 l 2
 229 52 255 42 362 42 c 0
 485 42 536 58 575 166 c 1
 599 159 l 1
 557 0 l 1
 41 0 l 1
EndSplineSet
EndChar

StartChar: M
Encoding: 77 77 12
Width: 1003
Flags: HMW
LayerCount: 2
Fore
SplineSet
23 0 m 1
 23 26 l 1
 104 39 129 64 134 141 c 2
 150 544 l 1
 150 646 144 674 64 674 c 1
 64 700 l 1
 242 700 l 1
 510 146 l 1
 777 700 l 1
 945 700 l 1
 945 674 l 1
 864 674 859 642 859 622 c 2
 867 120 l 2
 868 87 877 26 972 26 c 1
 972 0 l 1
 667 0 l 1
 667 26 l 1
 740 31 765 56 767 105 c 2
 763 577 l 1
 491 -10 l 1
 467 -10 l 1
 196 553 l 1
 187 137 l 2
 187 71 210 32 289 26 c 1
 289 0 l 1
 23 0 l 1
EndSplineSet
EndChar

StartChar: N
Encoding: 78 78 13
Width: 857
Flags: HMW
LayerCount: 2
Fore
SplineSet
678 603 m 2
 678 653 634 674 570 674 c 1
 570 700 l 1
 831 700 l 1
 831 674 l 1
 767 674 723 653 723 603 c 2
 723 -10 l 1
 700 -10 l 1
 198 557 l 1
 198 97 l 2
 198 47 234 26 298 26 c 1
 298 0 l 1
 37 0 l 1
 37 26 l 1
 101 26 137 47 137 97 c 2
 137 586 l 2
 137 610 109 674 37 674 c 1
 37 700 l 1
 192 700 l 1
 678 162 l 1
 678 603 l 2
EndSplineSet
EndChar

StartChar: O
Encoding: 79 79 14
Width: 809
Flags: HMW
LayerCount: 2
Fore
SplineSet
396 667 m 0
 243 667 158 511 158 358 c 0
 158 193 253 31 404 31 c 0
 573 31 652 194 652 347 c 0
 652 517 566 667 396 667 c 0
48 348 m 0
 48 545 193 710 390 710 c 0
 587 710 762 554 762 357 c 0
 762 159 608 -12 410 -12 c 0
 210 -12 48 148 48 348 c 0
EndSplineSet
EndChar

StartChar: P
Encoding: 80 80 15
Width: 566
Flags: HMW
LayerCount: 2
Fore
SplineSet
229 665 m 1
 229 107 l 2
 229 38 245 26 316 26 c 1
 316 0 l 1
 41 0 l 1
 41 26 l 1
 105 26 129 32 129 97 c 2
 129 607 l 2
 129 659 113 674 41 674 c 1
 41 700 l 1
 293 700 l 2
 415 700 537 637 537 502 c 0
 537 382 427 305 311 305 c 0
 295 305 286 306 270 307 c 1
 271 336 l 1
 279 335 284 335 292 335 c 0
 374 335 427 386 427 492 c 0
 427 612 358 667 263 667 c 0
 250 667 240 667 229 665 c 1
EndSplineSet
EndChar

StartChar: Q
Encoding: 81 81 16
Width: 809
Flags: HMW
LayerCount: 2
Fore
SplineSet
396 667 m 0
 243 667 158 511 158 358 c 0
 158 193 253 31 404 31 c 0
 573 31 652 194 652 347 c 0
 652 517 566 667 396 667 c 0
515 5 m 1
 515 5 690 -169 742 -169 c 0
 756 -169 767 -166 778 -162 c 1
 792 -177 l 1
 776 -208 732 -235 684 -235 c 0
 617 -235 444 -39 388 -11 c 1
 198 0 48 155 48 348 c 0
 48 545 193 710 390 710 c 0
 587 710 762 554 762 357 c 0
 762 196 660 53 515 5 c 1
EndSplineSet
EndChar

StartChar: R
Encoding: 82 82 17
Width: 689
Flags: HMW
LayerCount: 2
Fore
SplineSet
306 342 m 1025
229 340 m 1
 229 107 l 2
 229 38 245 26 316 26 c 1
 316 0 l 1
 41 0 l 1
 41 26 l 1
 105 26 129 32 129 97 c 2
 129 607 l 2
 129 659 113 674 41 674 c 1
 41 700 l 1
 293 700 l 2
 415 700 550 654 550 519 c 0
 550 438 488 385 404 359 c 1
 571 116 l 2
 603 70 656 26 699 26 c 1
 699 0 l 1
 538 0 l 1
 307 340 l 1
 229 340 l 1
248 665 m 2
 229 665 l 1
 229 385 l 1
 261 385 l 2
 381 385 440 427 440 509 c 0
 440 624 381 665 248 665 c 2
EndSplineSet
EndChar

StartChar: S
Encoding: 83 83 18
Width: 500
Flags: HMW
LayerCount: 2
Fore
SplineSet
229 -11 m 0
 167 -11 118 6 75 27 c 1
 55 172 l 1
 79 172 l 1
 105 84 154 31 237 31 c 0
 313 31 369 87 369 163 c 0
 369 324 76 300 76 519 c 0
 76 649 178 710 266 710 c 0
 347 710 355 704 400 697 c 1
 418 563 l 1
 394 563 l 1
 377 619 338 668 272 668 c 0
 208 668 158 619 158 555 c 0
 158 374 458 414 458 202 c 0
 458 79 352 -11 229 -11 c 0
EndSplineSet
EndChar

StartChar: T
Encoding: 84 84 19
Width: 668
Flags: HMW
LayerCount: 2
Fore
SplineSet
377 97 m 2
 377 32 401 26 465 26 c 1
 465 0 l 1
 189 0 l 1
 189 26 l 1
 253 26 277 32 277 97 c 2
 277 656 l 1
 159 656 l 2
 58 656 47 629 39 571 c 1
 12 571 l 1
 22 726 l 1
 44 726 l 1
 44 726 44 700 109 700 c 2
 545 700 l 2
 610 700 618 726 618 726 c 1
 640 726 l 1
 630 571 l 1
 603 571 l 1
 603 639 585 656 495 656 c 2
 377 656 l 1
 377 97 l 2
EndSplineSet
EndChar

StartChar: U
Encoding: 85 85 20
Width: 746
Flags: HMW
LayerCount: 2
Fore
SplineSet
112 607 m 2
 112 659 96 674 24 674 c 1
 24 700 l 1
 300 700 l 1
 300 674 l 1
 228 674 212 659 212 607 c 2
 212 276 l 2
 212 104 277 33 401 33 c 0
 539 33 577 142 577 240 c 2
 577 607 l 2
 577 659 554 674 482 674 c 1
 482 700 l 1
 732 700 l 1
 732 674 l 1
 660 674 638 659 637 607 c 2
 637 260 l 2
 637 51 526 -10 379 -10 c 0
 237 -10 112 45 112 256 c 2
 112 607 l 2
EndSplineSet
EndChar

StartChar: V
Encoding: 86 86 21
Width: 723
Flags: HMW
LayerCount: 2
Fore
SplineSet
10 700 m 1
 275 700 l 1
 275 674 l 1
 256 674 205 669 205 650 c 0
 205 645 206 640 209 632 c 2
 399 129 l 1
 577 598 l 2
 580 606 586 623 586 639 c 0
 586 664 524 674 503 674 c 1
 503 700 l 1
 713 700 l 1
 713 674 l 1
 678 673 648 647 634 612 c 2
 389 -10 l 1
 350 -10 l 1
 108 607 l 2
 92 647 60 674 10 674 c 1
 10 700 l 1
EndSplineSet
EndChar

StartChar: W
Encoding: 87 87 22
Width: 1028
Flags: HMW
LayerCount: 2
Fore
SplineSet
10 700 m 1
 275 700 l 1
 275 674 l 1
 256 674 205 669 205 650 c 0
 205 645 206 640 209 632 c 2
 410 129 l 1
 504 336 l 1
 385 607 l 2
 369 647 349 674 299 674 c 1
 299 700 l 1
 524 700 l 1
 524 674 l 1
 505 674 482 669 482 650 c 0
 482 645 483 640 486 632 c 2
 560 461 l 1
 622 598 l 2
 625 606 631 623 631 639 c 0
 631 664 569 674 548 674 c 1
 548 700 l 1
 758 700 l 1
 758 674 l 1
 723 673 693 647 679 612 c 2
 583 407 l 1
 704 129 l 1
 882 598 l 2
 885 606 891 623 891 639 c 0
 891 664 829 674 808 674 c 1
 808 700 l 1
 1018 700 l 1
 1018 674 l 1
 983 673 953 647 939 612 c 2
 694 -10 l 1
 655 -10 l 1
 526 284 l 1
 389 -10 l 1
 350 -10 l 1
 108 607 l 2
 92 647 60 674 10 674 c 1
 10 700 l 1
EndSplineSet
EndChar

StartChar: X
Encoding: 88 88 23
Width: 737
Flags: HMW
LayerCount: 2
Fore
SplineSet
10 700 m 1
 285 700 l 1
 285 674 l 1
 260 674 217 665 217 647 c 0
 217 641 222 633 225 629 c 2
 379 422 l 1
 518 602 l 2
 525 611 534 625 534 642 c 0
 534 670 501 674 470 674 c 1
 470 700 l 1
 707 700 l 1
 707 674 l 1
 647 674 598 633 582 612 c 2
 408 382 l 1
 636 76 l 2
 641 70 672 26 727 26 c 1
 727 0 l 1
 468 0 l 1
 468 26 l 1
 505 26 524 28 524 46 c 0
 524 62 501 92 501 92 c 1
 347 301 l 1
 199 106 l 1
 199 106 170 71 170 53 c 0
 170 32 204 26 246 26 c 1
 246 0 l 1
 10 0 l 1
 10 26 l 1
 35 26 78 30 132 100 c 2
 317 341 l 1
 114 617 l 2
 93 646 58 674 10 674 c 1
 10 700 l 1
EndSplineSet
EndChar

StartChar: Y
Encoding: 89 89 24
Width: 690
Flags: HMW
LayerCount: 2
Fore
SplineSet
412 97 m 2
 413 32 436 26 500 26 c 1
 500 0 l 1
 224 0 l 1
 224 26 l 1
 288 26 312 32 312 97 c 2
 311 341 l 1
 102 629 l 2
 86 651 57 674 10 674 c 1
 10 700 l 1
 273 700 l 1
 273 674 l 1
 249 674 214 673 214 651 c 0
 214 643 219 632 219 632 c 1
 388 395 l 1
 542 607 l 1
 542 607 556 627 556 642 c 0
 556 673 516 674 483 674 c 1
 483 700 l 1
 680 700 l 1
 680 674 l 1
 660 674 636 661 614 632 c 2
 409 356 l 1
 412 97 l 2
EndSplineSet
EndChar

StartChar: Z
Encoding: 90 90 25
Width: 639
Flags: HMW
LayerCount: 2
Fore
SplineSet
182 658 m 2
 81 656 70 629 62 571 c 1
 35 571 l 1
 45 726 l 1
 67 726 l 1
 67 726 67 700 132 700 c 2
 572 700 l 1
 572 658 l 1
 157 55 l 5
 372 55 l 2
 495 55 546 58 585 166 c 1
 609 159 l 1
 567 0 l 1
 37 0 l 1
 37 55 l 1
 449 658 l 1
 182 658 l 2
EndSplineSet
EndChar

StartChar: a
Encoding: 97 97 27
Width: 473
Flags: HMW
LayerCount: 2
Fore
SplineSet
296 232 m 1
 281 226 122 199 122 116 c 0
 122 76 152 45 192 45 c 0
 238 45 282 93 296 114 c 1
 296 232 l 1
252 460 m 0
 376 460 381 350 381 350 c 1
 381 92 l 2
 381 70 385 50 415 50 c 0
 430 50 439 53 451 63 c 1
 463 45 l 1
 442 16 409 -10 365 -10 c 0
 328 -10 299 16 299 62 c 1
 270 34 217 -10 150 -10 c 0
 96 -10 37 39 37 93 c 0
 37 214 261 255 296 273 c 1
 296 322 l 2
 296 354 290 408 207 408 c 0
 106 408 152 298 75 298 c 0
 61 298 49 300 49 314 c 0
 49 408 239 460 252 460 c 0
EndSplineSet
EndChar

StartChar: b
Encoding: 98 98 28
Width: 515
Flags: HMW
LayerCount: 2
Fore
SplineSet
256 408 m 0
 214 408 164 367 147 343 c 1
 147 134 l 2
 147 67 190 32 253 32 c 0
 350 32 392 124 392 221 c 0
 392 314 349 408 256 408 c 0
292 460 m 0
 404 460 477 360 477 239 c 0
 477 112 369 -10 234 -10 c 0
 151 -10 129 14 100 14 c 0
 87 14 79 5 75 0 c 1
 51 0 l 1
 51 0 62 76 62 145 c 2
 62 628 l 2
 62 686 10 699 5 699 c 1
 5 716 l 1
 50 725 98 746 120 765 c 1
 147 765 l 1
 147 392 l 1
 195 433 228 460 292 460 c 0
EndSplineSet
EndChar

StartChar: c
Encoding: 99 99 29
Width: 453
Flags: HMW
LayerCount: 2
Fore
SplineSet
287 460 m 0
 343 460 414 445 414 389 c 0
 414 367 400 347 378 347 c 0
 332 347 327 418 246 418 c 0
 163 418 124 335 124 244 c 0
 124 131 186 63 275 63 c 0
 339 63 373 86 409 116 c 1
 425 100 l 1
 414 75 338 -10 239 -10 c 0
 123 -10 39 86 39 210 c 0
 39 348 149 460 287 460 c 0
EndSplineSet
EndChar

StartChar: d
Encoding: 100 100 30
Width: 535
Flags: HMW
LayerCount: 2
Fore
SplineSet
376 325 m 2
 376 336 361 418 275 418 c 0
 183 418 124 341 124 242 c 0
 124 128 187 42 261 42 c 0
 329 42 376 108 376 133 c 2
 376 325 l 2
461 92 m 2
 461 53 472 53 530 53 c 1
 530 32 l 1
 462 18 412 -10 391 -10 c 0
 387 -10 383 -5 383 7 c 0
 383 26 386 61 386 67 c 1
 352 28 293 -10 227 -10 c 0
 105 -10 39 89 39 202 c 0
 39 348 158 460 296 460 c 0
 329 460 359 448 376 442 c 1
 376 628 l 2
 376 686 324 699 319 699 c 1
 319 716 l 1
 364 725 412 746 434 765 c 1
 461 765 l 1
 461 92 l 2
EndSplineSet
EndChar

StartChar: e
Encoding: 101 101 31
Width: 469
Flags: HMW
LayerCount: 2
Fore
SplineSet
136 281 m 1
 135 269 134 257 134 244 c 0
 134 131 196 63 285 63 c 0
 349 63 383 86 419 116 c 1
 435 100 l 1
 424 75 348 -10 249 -10 c 0
 133 -10 49 86 49 210 c 0
 49 388 190 460 271 460 c 0
 366 460 432 386 432 308 c 0
 432 292 425 281 408 281 c 2
 136 281 l 1
143 317 m 1
 343 317 l 2
 357 317 357 321 357 332 c 0
 357 379 323 418 261 418 c 0
 203 418 160 372 143 317 c 1
EndSplineSet
EndChar

StartChar: f
Encoding: 102 102 32
Width: 330
Flags: HMW
LayerCount: 2
Fore
SplineSet
188 97 m 2
 188 32 199 26 263 26 c 1
 263 0 l 1
 28 0 l 1
 28 26 l 1
 92 26 103 32 103 97 c 2
 103 402 l 1
 37 402 l 1
 37 426 l 1
 103 460 l 1
 103 640 208 765 310 765 c 0
 333 765 350 744 350 721 c 0
 350 701 339 670 319 670 c 0
 293 670 296 696 253 696 c 0
 190 696 187 601 187 451 c 1
 313 451 l 1
 313 402 l 1
 187 402 l 1
 188 97 l 2
EndSplineSet
EndChar

StartChar: g
Encoding: 103 103 33
Width: 487
Flags: HMW
LayerCount: 2
Fore
SplineSet
272 0 m 0
 185 0 98 -5 98 -97 c 0
 98 -153 137 -199 222 -199 c 0
 309 -199 409 -151 409 -76 c 0
 409 -34 396 0 272 0 c 0
222 424 m 0
 165 424 134 373 134 316 c 0
 134 252 172 186 236 186 c 0
 294 186 324 249 324 307 c 0
 324 369 284 424 222 424 c 0
231 460 m 0
 299 460 314 446 384 432 c 1
 478 432 l 1
 478 385 l 1
 389 386 l 1
 403 368 409 345 409 316 c 0
 409 228 339 150 227 150 c 0
 205 150 179 154 164 159 c 1
 148 145 144 137 144 114 c 0
 144 83 169 70 205 70 c 2
 359 70 l 2
 411 70 476 51 476 -43 c 0
 476 -145 340 -235 212 -235 c 0
 84 -235 23 -191 23 -110 c 0
 23 -70 52 -26 134 0 c 1
 79 16 57 59 57 104 c 0
 57 111 60 123 64 133 c 1
 132 173 l 1
 73 202 49 247 49 307 c 0
 49 401 137 460 231 460 c 0
EndSplineSet
EndChar

StartChar: h
Encoding: 104 104 34
Width: 556
Flags: HMW
LayerCount: 2
Fore
SplineSet
181 97 m 2
 181 32 192 26 256 26 c 1
 256 0 l 1
 21 0 l 1
 21 26 l 1
 85 26 96 32 96 97 c 2
 96 628 l 2
 96 686 44 699 39 699 c 1
 39 716 l 1
 84 725 132 746 154 765 c 1
 181 765 l 1
 181 386 l 1
 205 401 292 460 351 460 c 0
 428 460 471 412 471 300 c 2
 471 97 l 2
 472 32 482 26 546 26 c 1
 546 0 l 1
 311 0 l 1
 311 26 l 1
 375 26 386 32 386 97 c 2
 386 306 l 2
 386 376 349 395 300 395 c 0
 252 395 212 360 181 338 c 1
 181 97 l 2
EndSplineSet
EndChar

StartChar: i
Encoding: 105 105 35
Width: 288
Flags: HMW
LayerCount: 2
Fore
SplineSet
151 716 m 0
 186 716 206 696 206 661 c 0
 206 626 186 606 151 606 c 0
 116 606 96 626 96 661 c 0
 96 696 116 716 151 716 c 0
194 97 m 2
 194 32 205 26 269 26 c 1
 269 0 l 1
 34 0 l 1
 34 26 l 1
 98 26 109 32 109 97 c 2
 109 323 l 2
 109 381 57 394 52 394 c 1
 52 411 l 1
 97 420 145 441 167 460 c 1
 194 460 l 1
 194 97 l 2
EndSplineSet
EndChar

StartChar: j
Encoding: 106 106 36
Width: 288
Flags: HMW
LayerCount: 2
Fore
SplineSet
153 716 m 4
 188 716 208 696 208 661 c 4
 208 626 188 606 153 606 c 4
 118 606 98 626 98 661 c 4
 98 696 118 716 153 716 c 4
196 -45 m 6
 196 -110 177 -199 33 -240 c 5
 25 -205 l 5
 102 -176 111 -140 111 -75 c 6
 111 323 l 6
 111 381 59 394 54 394 c 5
 54 411 l 5
 99 420 147 441 169 460 c 5
 196 460 l 5
 196 -45 l 6
EndSplineSet
EndChar

StartChar: k
Encoding: 107 107 37
Width: 527
Flags: HMW
LayerCount: 2
Fore
SplineSet
181 97 m 2
 181 32 192 26 256 26 c 1
 256 0 l 1
 21 0 l 1
 21 26 l 1
 85 26 96 32 96 97 c 2
 96 628 l 2
 96 686 44 699 39 699 c 1
 39 716 l 1
 84 725 132 746 154 765 c 1
 181 765 l 1
 181 250 l 1
 192 250 l 2
 200 250 209 250 219 260 c 2
 357 382 l 2
 370 394 371 399 371 406 c 0
 371 423 341 425 320 425 c 1
 320 451 l 1
 517 451 l 1
 517 425 l 1
 467 425 431 398 421 389 c 2
 271 258 l 1
 445 61 l 2
 466 37 499 26 524 26 c 1
 524 0 l 1
 379 0 l 1
 200 214 l 1
 181 214 l 1
 181 97 l 2
EndSplineSet
EndChar

StartChar: l
Encoding: 108 108 38
Width: 288
Flags: HMW
LayerCount: 2
Fore
SplineSet
194 97 m 2
 194 32 205 26 269 26 c 1
 269 0 l 1
 34 0 l 1
 34 26 l 1
 98 26 109 32 109 97 c 2
 109 628 l 2
 109 686 57 699 52 699 c 1
 52 716 l 1
 97 725 145 746 167 765 c 1
 194 765 l 1
 194 97 l 2
EndSplineSet
EndChar

StartChar: m
Encoding: 109 109 39
Width: 839
Flags: HMW
LayerCount: 2
Fore
SplineSet
194 97 m 2
 194 32 205 26 269 26 c 1
 269 0 l 1
 34 0 l 1
 34 26 l 1
 98 26 109 32 109 97 c 2
 109 323 l 2
 109 381 57 394 52 394 c 1
 52 411 l 1
 97 420 145 441 167 460 c 1
 194 460 l 1
 194 386 l 1
 218 401 293 460 352 460 c 0
 404 460 441 438 459 390 c 1
 491 409 579 460 634 460 c 0
 711 460 754 412 754 300 c 2
 754 97 l 2
 755 32 765 26 829 26 c 1
 829 0 l 1
 594 0 l 1
 594 26 l 1
 658 26 669 32 669 97 c 2
 669 306 l 2
 669 376 632 395 583 395 c 0
 542 395 500 371 469 350 c 1
 471 335 472 318 472 300 c 2
 472 97 l 2
 473 32 483 26 547 26 c 1
 547 0 l 1
 312 0 l 1
 312 26 l 1
 376 26 387 32 387 97 c 2
 387 306 l 2
 387 376 350 395 301 395 c 0
 253 395 225 360 194 338 c 1
 194 97 l 2
EndSplineSet
EndChar

StartChar: n
Encoding: 110 110 40
Width: 569
Flags: HMW
LayerCount: 2
Fore
SplineSet
194 97 m 2
 194 32 205 26 269 26 c 1
 269 0 l 1
 34 0 l 1
 34 26 l 1
 98 26 109 32 109 97 c 2
 109 323 l 2
 109 381 57 394 52 394 c 1
 52 411 l 1
 97 420 145 441 167 460 c 1
 194 460 l 1
 194 386 l 1
 218 401 305 460 364 460 c 0
 441 460 484 412 484 300 c 2
 484 97 l 2
 485 32 495 26 559 26 c 1
 559 0 l 1
 324 0 l 1
 324 26 l 1
 388 26 399 32 399 97 c 2
 399 306 l 2
 399 376 362 395 313 395 c 0
 265 395 225 360 194 338 c 1
 194 97 l 2
EndSplineSet
EndChar

StartChar: o
Encoding: 111 111 41
Width: 548
Flags: HMW
LayerCount: 2
Fore
SplineSet
267 418 m 0
 171 418 141 324 141 228 c 0
 141 129 175 32 274 32 c 0
 371 32 409 121 409 218 c 0
 409 317 366 418 267 418 c 0
274 460 m 0
 404 460 509 358 509 228 c 0
 509 98 397 -10 267 -10 c 0
 141 -10 41 92 41 218 c 0
 41 349 143 460 274 460 c 0
EndSplineSet
EndChar

StartChar: p
Encoding: 112 112 42
Width: 543
Flags: HMW
LayerCount: 2
Fore
SplineSet
285 408 m 0
 243 408 193 367 176 343 c 1
 176 134 l 2
 176 67 219 32 282 32 c 0
 379 32 421 124 421 221 c 0
 421 314 378 408 285 408 c 0
176 -138 m 2
 176 -203 187 -209 251 -209 c 1
 251 -235 l 1
 16 -235 l 1
 16 -209 l 1
 80 -209 91 -203 91 -138 c 2
 91 323 l 2
 91 381 39 394 34 394 c 1
 34 411 l 1
 79 420 127 441 149 460 c 1
 176 460 l 1
 176 392 l 1
 224 433 257 460 321 460 c 0
 433 460 506 360 506 239 c 0
 506 112 398 -10 263 -10 c 0
 213 -10 200 0 176 8 c 1
 176 -138 l 2
EndSplineSet
EndChar

StartChar: q
Encoding: 113 113 43
Width: 536
Flags: HMW
LayerCount: 2
Fore
SplineSet
375 325 m 2
 375 336 360 418 274 418 c 0
 182 418 123 341 123 242 c 0
 123 128 186 42 260 42 c 0
 328 42 375 108 375 133 c 2
 375 325 l 2
375 63 m 1
 341 28 292 -10 226 -10 c 0
 104 -10 38 89 38 202 c 0
 38 348 157 460 295 460 c 0
 328 460 350 452 371 442 c 0
 381 437 392 428 405 428 c 0
 428 428 432 450 436 450 c 2
 460 450 l 1
 460 -138 l 2
 460 -203 471 -209 535 -209 c 1
 535 -235 l 1
 300 -235 l 1
 300 -209 l 1
 364 -209 375 -203 375 -138 c 2
 375 63 l 1
EndSplineSet
EndChar

StartChar: r
Encoding: 114 114 44
Width: 390
Flags: HMW
LayerCount: 2
Fore
SplineSet
194 97 m 2
 194 32 205 26 269 26 c 1
 269 0 l 1
 34 0 l 1
 34 26 l 1
 98 26 109 32 109 97 c 2
 109 323 l 2
 109 381 57 394 52 394 c 1
 52 411 l 1
 97 420 145 441 167 460 c 1
 194 460 l 1
 194 362 l 1
 227 404 258 460 319 460 c 0
 348 460 376 441 376 407 c 0
 376 379 364 355 333 355 c 0
 312 355 297 370 273 370 c 0
 247 370 206 355 194 299 c 1
 194 97 l 2
EndSplineSet
EndChar

StartChar: s
Encoding: 115 115 45
Width: 384
Flags: HMW
LayerCount: 2
Fore
SplineSet
180 -10 m 0
 132 -10 66 15 49 27 c 5
 35 140 l 1
 58 144 l 1
 74 75 119 40 189 40 c 0
 232 40 265 57 265 100 c 0
 265 194 42 201 42 321 c 0
 42 412 121 460 201 460 c 0
 247 460 276 447 315 435 c 1
 319 341 l 1
 298 341 l 1
 289 389 247 418 192 418 c 0
 150 418 125 393 125 360 c 0
 125 246 347 272 347 131 c 0
 347 44 267 -10 180 -10 c 0
EndSplineSet
EndChar

StartChar: t
Encoding: 116 116 46
Width: 335
Flags: HMW
LayerCount: 2
Fore
SplineSet
170 451 m 1
 317 451 l 1
 317 402 l 1
 170 402 l 1
 171 141 l 2
 171 76 182 45 225 45 c 0
 256 45 283 60 303 74 c 1
 315 56 l 1
 293 36 239 -10 181 -10 c 0
 112 -10 86 32 86 97 c 2
 86 402 l 1
 20 402 l 1
 20 426 l 1
 97 471 128 505 145 545 c 1
 169 545 l 1
 170 451 l 1
EndSplineSet
EndChar

StartChar: u
Encoding: 117 117 47
Width: 547
Flags: HMW
LayerCount: 2
Fore
SplineSet
92 122 m 2
 92 359 l 2
 92 371 53 396 17 402 c 1
 17 435 l 1
 177 457 l 1
 177 162 l 2
 177 89 198 45 253 45 c 0
 308 45 336 73 376 104 c 1
 376 359 l 2
 376 371 337 396 301 402 c 1
 301 435 l 1
 461 457 l 1
 461 92 l 2
 461 53 472 53 530 53 c 1
 530 32 l 1
 462 18 412 -10 391 -10 c 0
 387 -10 383 -5 383 7 c 0
 383 26 386 57 386 63 c 1
 352 28 274 -10 196 -10 c 0
 131 -10 92 30 92 122 c 2
EndSplineSet
EndChar

StartChar: v
Encoding: 118 118 48
Width: 490
Flags: HMW
LayerCount: 2
Fore
SplineSet
32 451 m 1
 234 451 l 1
 234 425 l 1
 220 425 176 423 176 391 c 0
 176 388 177 383 178 381 c 2
 282 116 l 1
 372 340 l 2
 378 355 381 372 381 381 c 0
 381 404 353 425 329 425 c 1
 329 451 l 1
 490 451 l 1
 490 425 l 1
 465 425 439 402 430 379 c 2
 268 -10 l 1
 241 -10 l 1
 91 378 l 2
 77 416 41 425 32 425 c 1
 32 451 l 1
EndSplineSet
EndChar

StartChar: w
Encoding: 119 119 49
Width: 768
Flags: HMW
LayerCount: 2
Fore
SplineSet
32 450 m 1
 234 450 l 1
 234 424 l 1
 220 424 176 422 176 390 c 0
 176 387 177 382 178 380 c 2
 282 116 l 1
 372 339 l 2
 374 344 376 350 377 355 c 2
 369 377 l 2
 355 415 319 424 310 424 c 1
 310 450 l 1
 512 450 l 1
 512 424 l 1
 498 424 454 422 454 390 c 0
 454 387 455 382 456 380 c 2
 560 116 l 1
 650 339 l 2
 656 354 659 371 659 380 c 0
 659 403 631 424 607 424 c 1
 607 450 l 1
 768 450 l 1
 768 424 l 1
 743 424 717 401 708 378 c 2
 546 -10 l 1
 519 -10 l 1
 398 284 l 1
 268 -10 l 1
 241 -10 l 1
 91 377 l 2
 77 415 41 424 32 424 c 1
 32 450 l 1
EndSplineSet
EndChar

StartChar: x
Encoding: 120 120 50
Width: 513
Flags: HMW
LayerCount: 2
Fore
SplineSet
149 65 m 2
 144 60 135 48 135 44 c 0
 135 28 169 26 195 26 c 1
 195 0 l 1
 9 0 l 1
 9 26 l 1
 37 26 72 39 91 60 c 2
 224 215 l 1
 106 371 l 2
 91 391 72 425 32 425 c 1
 32 451 l 5
 239 451 l 1
 239 425 l 1
 223 425 187 414 187 399 c 0
 187 397 189 389 196 380 c 2
 277 277 l 1
 361 374 l 2
 364 378 372 389 372 398 c 0
 372 409 343 424 320 425 c 1
 320 451 l 1
 508 451 l 1
 508 425 l 1
 469 425 446 407 412 368 c 2
 304 243 l 1
 454 52 l 2
 467 36 484 26 508 26 c 1
 508 0 l 1
 306 0 l 1
 306 26 l 1
 326 26 352 26 352 40 c 0
 352 45 349 51 346 55 c 2
 250 181 l 1
 149 65 l 2
EndSplineSet
EndChar

StartChar: y
Encoding: 121 121 51
Width: 491
Flags: HMW
LayerCount: 2
Fore
SplineSet
218 -126 m 0
 208 -151 180 -235 126 -235 c 0
 90 -235 72 -209 72 -181 c 0
 72 -153 95 -123 123 -123 c 0
 140 -123 148 -123 166 -135 c 1
 230 18 l 1
 91 378 l 2
 77 416 41 425 32 425 c 1
 32 451 l 1
 234 451 l 1
 234 425 l 1
 220 425 176 423 176 391 c 0
 176 388 177 383 178 381 c 2
 282 116 l 1
 372 340 l 2
 378 355 381 372 381 381 c 0
 381 404 353 425 329 425 c 1
 329 451 l 1
 490 451 l 1
 490 425 l 1
 465 425 439 402 430 379 c 0
 359 216 287 39 218 -126 c 0
EndSplineSet
EndChar

StartChar: z
Encoding: 122 122 52
Width: 442
Flags: HMW
LayerCount: 2
Fore
SplineSet
46 328 m 1
 61 476 l 1
 85 476 l 1
 88 465 92 451 111 451 c 2
 397 451 l 1
 397 407 l 1
 141 41 l 5
 296 41 l 6
 340 41 382 111 395 136 c 1
 417 128 l 1
 389 0 l 1
 32 0 l 1
 32 26 l 1
 296 406 l 1
 157 406 l 2
 103 406 73 352 73 328 c 1
 46 328 l 1
EndSplineSet
EndChar

StartChar: dollar
Encoding: 36 36 55
Width: 499
Flags: HMW
LayerCount: 2
Fore
SplineSet
277 36 m 1
 332 52 370 101 370 163 c 0
 370 224 328 258 276 289 c 1
 277 36 l 1
242 667 m 1
 188 660 159 614 159 555 c 0
 159 492 195 456 242 427 c 1
 242 667 l 1
230 -11 m 0
 168 -11 119 6 76 27 c 1
 56 172 l 1
 80 172 l 1
 106 84 155 31 238 31 c 0
 239 31 241 31 242 31 c 2
 242 309 l 1
 163 353 77 400 77 519 c 0
 77 645 157 706 242 710 c 1
 242 800 l 1
 274 800 l 1
 274 710 l 1
 337 709 361 703 401 697 c 1
 419 563 l 1
 395 563 l 1
 380 614 333 659 275 667 c 1
 276 408 l 1
 360 363 459 324 459 202 c 0
 459 95 380 14 278 -6 c 1
 278 -101 l 1
 242 -101 l 1
 242 -11 l 1
 238 -11 234 -11 230 -11 c 0
EndSplineSet
EndChar

StartChar: bracketleft
Encoding: 91 91 56
Width: 230
Flags: HMW
LayerCount: 2
Fore
SplineSet
75 784 m 1
 185 784 l 1
 185 729 l 1
 130 729 l 1
 130 -36 l 1
 185 -36 l 1
 185 -90 l 1
 75 -90 l 1
 75 784 l 1
EndSplineSet
EndChar

StartChar: bracketright
Encoding: 93 93 57
Width: 265
Flags: HMW
LayerCount: 2
Fore
SplineSet
165 784 m 1
 165 -90 l 1
 55 -90 l 1
 55 -36 l 1
 110 -36 l 1
 110 729 l 1
 55 729 l 1
 55 784 l 1
 165 784 l 1
EndSplineSet
EndChar

StartChar: comma
Encoding: 44 44 58
Width: 288
Flags: HMW
LayerCount: 2
Fore
SplineSet
75 -174 m 1
 63 -148 l 1
 126 -125 157 -81 157 -44 c 0
 157 41 67 -30 67 56 c 0
 67 92 91 116 127 116 c 0
 188 116 209 61 209 0 c 0
 209 -76 158 -152 75 -174 c 1
EndSplineSet
EndChar

StartChar: period
Encoding: 46 46 59
Width: 273
Flags: HMW
LayerCount: 2
Fore
SplineSet
68 50 m 0
 68 85 93 110 128 110 c 0
 163 110 188 85 188 50 c 0
 188 15 163 -10 128 -10 c 0
 93 -10 68 15 68 50 c 0
EndSplineSet
EndChar

StartChar: hyphen
Encoding: 45 45 60
Width: 362
Flags: HMW
LayerCount: 2
Fore
SplineSet
311 215 m 1
 73 215 l 1
 73 287 l 1
 311 287 l 1
 311 215 l 1
EndSplineSet
EndChar

StartChar: colon
Encoding: 58 58 61
Width: 272
Flags: HMW
LayerCount: 2
Fore
SplineSet
67 50 m 0
 67 85 92 110 127 110 c 0
 162 110 187 85 187 50 c 0
 187 15 162 -10 127 -10 c 0
 92 -10 67 15 67 50 c 0
67 400 m 0
 67 435 92 460 127 460 c 0
 162 460 187 435 187 400 c 0
 187 365 162 340 127 340 c 0
 92 340 67 365 67 400 c 0
EndSplineSet
EndChar

StartChar: semicolon
Encoding: 59 59 62
Width: 287
Flags: HMW
LayerCount: 2
Fore
SplineSet
77 400 m 0
 77 435 102 460 137 460 c 0
 172 460 197 435 197 400 c 0
 197 365 172 340 137 340 c 0
 102 340 77 365 77 400 c 0
74 -174 m 1
 62 -148 l 1
 125 -125 156 -81 156 -44 c 0
 156 41 66 -30 66 56 c 0
 66 92 90 116 126 116 c 0
 187 116 208 61 208 0 c 0
 208 -76 157 -152 74 -174 c 1
EndSplineSet
EndChar

StartChar: OE
Encoding: 338 338 63
Width: 1006
Flags: HMW
LayerCount: 2
Fore
SplineSet
416 -12 m 0
 216 -12 54 148 54 348 c 0
 54 545 199 710 396 710 c 0
 439 710 473 706 502 700 c 1
 921 700 l 1
 921 545 l 1
 900 545 l 1
 895 617 868 665 738 665 c 2
 620 665 l 1
 620 385 l 1
 752 385 l 2
 806 385 835 402 835 469 c 1
 862 469 l 1
 863 242 l 1
 837 242 l 1
 837 318 819 340 728 340 c 2
 620 340 l 1
 620 134 l 2
 620 42 646 42 753 42 c 0
 876 42 927 58 966 166 c 1
 990 159 l 1
 948 0 l 1
 514 0 l 1
 486 -8 453 -12 416 -12 c 0
402 667 m 0
 249 667 164 511 164 358 c 0
 164 193 258 31 409 31 c 0
 514 31 520 89 520 141 c 2
 520 563 l 2
 520 623 508 667 402 667 c 0
EndSplineSet
EndChar

StartChar: AE
Encoding: 198 198 64
Width: 1019
Flags: HMW
LayerCount: 2
Fore
SplineSet
533 665 m 1
 513 665 l 1
 364 385 l 1
 533 385 l 1
 533 665 l 1
54 0 m 1
 54 26 l 1
 125 26 148 74 195 160 c 2
 414 571 l 2
 432 605 448 628 448 649 c 0
 448 665 423 676 403 676 c 1
 403 700 l 1
 471 700 l 1
 596 700 l 1
 613 700 l 1
 934 700 l 1
 934 545 l 1
 913 545 l 1
 908 617 881 665 751 665 c 2
 633 665 l 1
 633 385 l 1
 765 385 l 2
 819 385 848 402 848 469 c 1
 875 469 l 1
 876 242 l 1
 850 242 l 1
 850 318 832 340 741 340 c 2
 633 340 l 1
 633 134 l 2
 633 42 659 42 766 42 c 0
 889 42 940 58 979 166 c 1
 1003 159 l 1
 961 0 l 1
 706 0 l 1
 445 0 l 1
 445 26 l 1
 509 26 533 32 533 97 c 2
 533 341 l 1
 345 341 l 1
 327 306 198 79 198 54 c 0
 198 34 218 26 291 26 c 1
 291 0 l 1
 54 0 l 1
EndSplineSet
EndChar

StartChar: .notdef
Encoding: 65533 65533 65
Width: 521
Flags: HMW
LayerCount: 2
Fore
SplineSet
121 50 m 1
 421 50 l 1
 421 460 l 1
 121 460 l 1
 121 50 l 1
71 0 m 1
 71 510 l 1
 471 510 l 1
 471 0 l 1
 71 0 l 1
EndSplineSet
EndChar

StartChar: backslash
Encoding: 92 92 67
Width: 357
Flags: W
VStem: 43 309
LayerCount: 2
Fore
SplineSet
43 716 m 1
 98 716 l 1
 352 -90 l 1
 297 -90 l 1
 43 716 l 1
EndSplineSet
EndChar
